<mxfile host="app.diagrams.net" modified="2024-06-30T15:11:28.298Z" agent="Mozilla/5.0 (Macintosh; Intel Mac OS X 10_15_7) AppleWebKit/537.36 (KHTML, like Gecko) Chrome/126.0.0.0 Safari/537.36" etag="n_X0lgl9sD9qcBu6nUDf" version="24.6.4" type="github">
  <diagram name="Page-1" id="r_DTdRPWJ75Ep6ejaYKo">
    <mxGraphModel dx="1041" dy="672" grid="1" gridSize="10" guides="1" tooltips="1" connect="1" arrows="1" fold="1" page="1" pageScale="1" pageWidth="850" pageHeight="1100" math="0" shadow="0">
      <root>
        <mxCell id="0" />
        <mxCell id="1" parent="0" />
        <mxCell id="21at0C9_HnIzEKaQnd3A-2" value="post" style="rounded=1;whiteSpace=wrap;html=1;" vertex="1" parent="1">
          <mxGeometry x="210" y="100" width="420" height="100" as="geometry" />
        </mxCell>
        <mxCell id="21at0C9_HnIzEKaQnd3A-4" value="user" style="ellipse;whiteSpace=wrap;html=1;aspect=fixed;" vertex="1" parent="1">
          <mxGeometry x="60" y="100" width="100" height="100" as="geometry" />
        </mxCell>
        <mxCell id="21at0C9_HnIzEKaQnd3A-5" value="user" style="ellipse;whiteSpace=wrap;html=1;aspect=fixed;" vertex="1" parent="1">
          <mxGeometry x="140" y="280" width="40" height="40" as="geometry" />
        </mxCell>
        <mxCell id="21at0C9_HnIzEKaQnd3A-6" value="comment" style="rounded=1;whiteSpace=wrap;html=1;" vertex="1" parent="1">
          <mxGeometry x="270" y="270" width="280" height="60" as="geometry" />
        </mxCell>
        <mxCell id="21at0C9_HnIzEKaQnd3A-7" value="user" style="ellipse;whiteSpace=wrap;html=1;aspect=fixed;" vertex="1" parent="1">
          <mxGeometry x="140" y="390" width="40" height="40" as="geometry" />
        </mxCell>
        <mxCell id="21at0C9_HnIzEKaQnd3A-8" value="comment" style="rounded=1;whiteSpace=wrap;html=1;" vertex="1" parent="1">
          <mxGeometry x="270" y="380" width="280" height="60" as="geometry" />
        </mxCell>
        <mxCell id="21at0C9_HnIzEKaQnd3A-9" value="profil" style="rounded=0;whiteSpace=wrap;html=1;" vertex="1" parent="1">
          <mxGeometry x="660" y="10" width="120" height="60" as="geometry" />
        </mxCell>
        <mxCell id="21at0C9_HnIzEKaQnd3A-10" value="ana sayfa" style="rounded=0;whiteSpace=wrap;html=1;" vertex="1" parent="1">
          <mxGeometry x="50" y="10" width="120" height="60" as="geometry" />
        </mxCell>
      </root>
    </mxGraphModel>
  </diagram>
</mxfile>
